<svg width="130" height="45" viewBox="0 0 130 45" fill="none" xmlns="http://www.w3.org/2000/svg">
<path fill-rule="evenodd" clip-rule="evenodd" d="M10.7705 40.0239V32.0378C11.5505 32.0395 12.4217 32.2355 13.0819 32.6485C13.2957 32.7822 13.4999 32.9882 13.6748 33.1674C14.0122 33.5134 14.1791 33.8221 14.3482 34.2681C14.948 35.8496 14.7269 38.1114 13.3288 39.2513C13.236 39.3274 13.1411 39.3953 13.04 39.4603C12.429 39.8509 11.5792 40.0242 10.7702 40.0242L10.7705 40.0239ZM7.28631 29.1502V27H10.5804H10.7699L10.7705 27.1843V29.1502L11.6572 29.2118C13.2325 29.3456 14.5678 29.9256 15.7934 30.882C16.1264 31.1445 16.4606 31.577 16.7243 31.9114C17.1742 32.4803 17.4656 33.1205 17.6885 33.8C17.9633 34.6765 18.113 35.5894 18.0301 36.5057C17.9882 36.9741 17.973 37.3772 17.8573 37.8404C17.4355 39.3302 16.8652 40.1952 15.7061 41.2512C15.0456 41.8531 14.3145 42.213 13.4636 42.4945C12.6249 42.7666 11.6539 42.9078 10.7708 42.9112V45H7.2866V42.9112C5.32848 42.8978 3.01007 42.2465 1.71657 40.7448C1.26167 40.2167 1.00918 39.9267 0.691369 39.2928C0.230323 38.3727 0.00653744 37.378 0.000386264 36.3569C0.001265 35.9445 -0.00957279 35.5979 0.0422729 35.1832C0.281583 33.3159 1.11551 31.6668 2.68845 30.5247C3.40257 30.0063 4.46233 29.5987 5.3276 29.3962C5.97465 29.2445 6.6214 29.1661 7.2866 29.1499L7.28631 29.1502ZM5.56662 32.3357C6.11173 32.1497 6.67734 32.0378 7.28631 32.0378V40.0239C6.07453 40.0182 4.82086 39.6773 4.10234 38.6639C3.36186 37.6192 3.25582 36.5043 3.42249 35.277C3.5212 34.5689 3.71453 33.9099 4.18377 33.3466C4.47991 32.9913 4.60352 32.8527 5.01946 32.6013C5.19462 32.4954 5.37212 32.405 5.56632 32.3357H5.56662ZM61.1993 41.56H58.2849V37.1366C59.3388 37.1366 61.96 37.0071 62.721 37.3195C64.2304 37.9401 64.2333 40.2045 63.1753 41.0186C62.7005 41.3836 62.033 41.56 61.1993 41.56ZM60.059 34.6791H58.2849V30.502C59.6985 30.502 61.8976 30.3116 62.8856 31.0166C63.3719 31.364 63.5892 32.1994 63.4885 32.9049C63.3827 33.646 63.1194 34.0607 62.4032 34.3723C61.8156 34.6282 60.9135 34.6791 60.0587 34.6791H60.059ZM54.7374 44.3246H61.7064C62.8575 44.3246 64.038 44.0845 64.9788 43.6278C65.8224 43.2188 66.625 42.5655 67.0028 41.7205C67.63 40.3187 67.7386 38.2131 66.6628 36.9988C66.1522 36.4225 65.5632 35.9695 64.7468 35.7851C64.7582 35.7755 64.7761 35.7462 64.7817 35.757C64.7872 35.7681 64.8086 35.734 64.8159 35.7292C65.2035 35.482 65.4129 35.5002 65.9782 34.9517C66.2556 34.6828 65.7726 35.1744 66.0386 34.8876C67.34 33.485 67.3801 31.6478 66.5219 30.0094L65.9375 29.2243C65.854 29.1434 65.84 29.1454 65.7609 29.0886L65.1018 28.6216C63.9129 27.9192 62.26 27.6757 60.3754 27.6757H54.7371V44.3243L54.7374 44.3246ZM27.7768 31.9852L27.8125 31.9761C27.8125 32.3434 29.7276 37.39 29.9033 38.1197H25.6587L27.7768 31.9852ZM19.7665 44.3246H23.5679L24.7167 40.8871L30.8535 40.884L32.0483 44.3271L35.8582 44.3246C35.7935 44.1939 35.7141 43.9922 35.6597 43.8417C35.5911 43.6536 35.529 43.5156 35.4537 43.304C35.3208 42.9282 35.1925 42.6493 35.0592 42.2735L34.249 40.1719C34.1034 39.8094 34.0006 39.5046 33.8509 39.1448C33.703 38.7894 33.5931 38.4565 33.4511 38.1194L29.3966 27.6757H26.1657C26.007 27.9666 25.8854 28.341 25.7478 28.6835C25.6022 29.0462 25.4759 29.3837 25.3506 29.7115C25.0755 30.4318 24.8333 31.0967 24.5442 31.8168L22.9542 35.9882C22.4173 37.2735 21.8593 38.9386 21.3505 40.1463C20.8962 41.2259 20.4337 42.6413 19.9569 43.771C19.8833 43.9451 19.8148 44.1237 19.7668 44.324L19.7665 44.3246ZM79.698 38.1197H75.4534C75.5685 37.6411 75.8034 37.073 75.9686 36.5918C76.0498 36.3549 76.1312 36.1177 76.2126 35.8808C76.251 35.7681 76.2899 35.6559 76.3286 35.5431C76.3895 35.3656 76.4505 35.1878 76.5117 35.01C76.5714 34.835 76.6318 34.6603 76.6915 34.4856C76.7117 34.4263 76.7325 34.3672 76.7528 34.3081C76.7721 34.2519 76.7911 34.1953 76.8105 34.1391C76.8515 34.0207 76.8919 33.9025 76.9323 33.7838C76.9721 33.6684 77.0117 33.5528 77.0515 33.4372C77.1104 33.2657 77.1696 33.0938 77.2281 32.922C77.2478 32.8657 77.2671 32.8095 77.2861 32.7533C77.3043 32.6999 77.3228 32.6467 77.3412 32.5933C77.3769 32.4888 77.4086 32.3934 77.4379 32.2866C77.4534 32.2306 77.5093 32.0488 77.5928 32.0684C77.6464 32.0809 77.6669 32.2053 77.6822 32.2533C77.6971 32.2999 77.7135 32.3465 77.7293 32.3928C77.7902 32.5703 77.8515 32.7481 77.9124 32.9254C78.0137 33.2214 78.1157 33.5173 78.2173 33.8133C78.2988 34.0499 78.3802 34.2868 78.4616 34.5237C78.5427 34.7603 78.6242 34.9972 78.7056 35.2338C78.9092 35.8257 79.1122 36.418 79.316 37.0099C79.3972 37.2465 79.4786 37.4834 79.56 37.72C79.6057 37.8535 79.6514 37.9864 79.6971 38.1197H79.698ZM69.5617 44.3246H73.2996L74.4947 40.8811L80.6482 40.8842L81.8155 44.316L85.5899 44.3246L85.2097 43.2801C84.6157 41.8721 83.8316 39.6478 83.208 38.0947L80.7993 31.8298C80.6693 31.4643 80.5275 31.1405 80.4036 30.8005L79.1913 27.676H75.8966L70.7275 41.1549C70.5802 41.5222 70.4917 41.8332 70.3415 42.1937C70.2243 42.4743 69.5852 44.0462 69.5614 44.3248L69.5617 44.3246ZM45.2977 35.6624H41.8764V30.5022C42.9927 30.5022 45.3088 30.377 46.1764 30.694C48.5487 31.5606 48.518 35.6624 45.2974 35.6624H45.2977ZM38.2654 27.8604V44.3246H41.8764V38.4883C44.7177 38.4883 47.4828 38.7886 49.617 37.1477C52.8238 34.6816 52.2599 27.676 44.7274 27.676H38.4555C38.3093 27.676 38.2654 27.7186 38.2654 27.8604ZM102.442 44.3246H113.972V41.5603H105.989V37.1369H112.768V34.4337H105.989V30.5022H113.909V27.676H102.442V44.3246ZM123.791 35.6624H120.434V30.5022H123.601C124.435 30.5022 125.084 30.7539 125.549 31.132C126.361 31.7923 126.389 32.6859 126.389 33.5736C126.389 34.8452 125.171 35.6624 123.791 35.6624ZM130 32.8285V32.9169C129.995 34.5921 129.845 35.3165 128.808 36.5946C128.413 37.0804 127.744 37.4914 127.171 37.772C125.244 38.7147 122.709 38.4883 120.434 38.4883V44.3246H116.886V27.676H123.221C125.326 27.676 126.746 28.0927 127.963 28.9755C129.116 29.8123 129.997 31.3237 130 32.8285H130ZM85.5899 30.5022H90.7848V44.3248H94.3322V30.5022H99.5906V27.8604C99.5906 27.7186 99.5467 27.676 99.4005 27.676H85.5899V30.5022Z" fill="white"/>
<path fill-rule="evenodd" clip-rule="evenodd" d="M63.841 15.5474C63.841 16.3472 64.0749 17.0364 64.356 17.5758C64.7474 18.3255 65.0909 18.6577 65.6901 19.1293C69.0346 21.7633 75.4676 22 79.4206 22C79.7443 22 79.7089 21.9445 80 21.9385L70.2147 7.74313C69.3837 7.92779 68.0006 8.72128 67.3337 9.29439C65.9745 10.4626 65.4146 11.066 64.5486 12.7202C64.1985 13.3888 63.841 14.545 63.841 15.5474ZM50 21.9385C50.1773 21.9385 50.4081 21.9508 50.5791 21.9385C50.822 21.9205 50.7902 21.8785 51.0921 21.8751C51.7562 21.8677 52.5109 21.755 52.7654 21.7519C53.971 21.737 56.0446 21.462 57.2125 21.4486C57.4829 21.446 58.3252 21.3237 58.948 21.3237L58.3947 19.8245C57.9665 18.3773 58.003 16.784 58.5869 15.3868L59.0555 14.4824C59.2337 14.1617 59.4023 13.9427 59.6047 13.654C59.9898 13.1046 60.4171 12.7008 60.8956 12.2443C61.3897 11.7726 61.8703 11.3925 62.4246 11L63.2089 10.4575C63.3676 10.3589 63.4984 10.2971 63.6484 10.2014L64.9777 9.44217C65.1571 9.35642 65.29 9.29382 65.4511 9.21779C66.2015 8.86249 69.1903 7.49645 69.9572 7.43557C69.8802 7.12029 68.7351 5.52444 68.4746 5.10225L67.24 3.26973C67.1274 3.09965 67.0618 2.98074 66.9445 2.8141L65.0648 0C64.9124 0.107476 61.2939 5.42954 61.2921 5.4324C61.1199 5.67651 61.0133 5.86259 60.8414 6.10813L57.5326 10.9388C56.8935 11.8489 56.2896 12.7505 55.6395 13.6792C55.4676 13.925 55.3613 14.1108 55.1888 14.3555L50.477 21.2262C50.2977 21.4841 50.1446 21.6773 50 21.9383V21.9385Z" fill="white"/>
</svg>
