<svg xmlns="http://www.w3.org/2000/svg" fill="none">
  <symbol viewBox="0 0 167 60" id="logo">
    <g clip-path="url(#clip0_444_197)">
      <path fill-rule="evenodd" clip-rule="evenodd" d="M13.8369 53.5059V43.0834C14.8389 43.0857 15.958 43.3414 16.8061 43.8804C17.0808 44.055 17.3431 44.3238 17.5677 44.5577C18.0012 45.0092 18.2157 45.4121 18.4328 45.9941C19.2034 48.0582 18.9193 51.01 17.1233 52.4976C17.004 52.597 16.8821 52.6856 16.7523 52.7705C15.9674 53.2802 14.8758 53.5063 13.8365 53.5063L13.8369 53.5059ZM9.36105 39.315V36.5088H13.5927H13.8361L13.8369 36.7494V39.315L14.9759 39.3954C16.9995 39.57 18.715 40.327 20.2893 41.5751C20.7172 41.9176 21.1465 42.4822 21.4852 42.9185C22.0631 43.661 22.4375 44.4965 22.7239 45.3832C23.0768 46.5272 23.2691 47.7186 23.1626 48.9145C23.1088 49.5258 23.0892 50.0518 22.9406 50.6564C22.3988 52.6007 21.6661 53.7294 20.1772 55.1077C19.3287 55.8932 18.3895 56.3629 17.2964 56.7302C16.2191 57.0853 14.9718 57.2696 13.8373 57.274V60.0001H9.36143V57.274C6.846 57.2566 3.86774 56.4066 2.20609 54.4467C1.62173 53.7576 1.29738 53.3791 0.889116 52.5517C0.296852 51.3511 0.00937463 50.0529 0.00147276 48.7202C0.0026016 48.182 -0.0113207 47.7297 0.0552807 47.1885C0.362701 44.7516 1.43397 42.5993 3.45459 41.1087C4.37196 40.4322 5.73334 39.9003 6.84487 39.636C7.67607 39.438 8.50689 39.3357 9.36143 39.3146L9.36105 39.315ZM7.15191 43.4723C7.85217 43.2295 8.57876 43.0834 9.36105 43.0834V53.5059C7.80438 53.4985 6.1939 53.0537 5.27089 51.731C4.31966 50.3676 4.18344 48.9126 4.39755 47.3109C4.52435 46.3867 4.7727 45.5267 5.3755 44.7916C5.75592 44.3279 5.91471 44.147 6.44902 43.8189C6.67404 43.6806 6.90206 43.5627 7.15154 43.4723H7.15191ZM78.6183 55.5106H74.8743V49.7378C76.2282 49.7378 79.5955 49.5688 80.5731 49.9765C82.512 50.7865 82.5158 53.7417 81.1567 54.8041C80.5467 55.2804 79.6892 55.5106 78.6183 55.5106ZM77.1534 46.5305H74.8743V41.0791C76.6902 41.0791 79.5153 40.8307 80.7845 41.7508C81.4092 42.2042 81.6884 43.2944 81.5589 44.2152C81.4231 45.1823 81.0848 45.7235 80.1648 46.1302C79.41 46.4642 78.251 46.5305 77.1531 46.5305H77.1534ZM70.3172 59.1186H79.2696C80.7484 59.1186 82.2648 58.8054 83.4734 58.2093C84.5571 57.6755 85.5881 56.8229 86.0735 55.7201C86.8791 53.8907 87.0187 51.1427 85.6367 49.558C84.9808 48.8059 84.2241 48.2146 83.1754 47.974C83.1901 47.9614 83.213 47.9232 83.2202 47.9373C83.2273 47.9518 83.2548 47.9073 83.2642 47.901C83.762 47.5785 84.0311 47.6022 84.7573 46.8864C85.1136 46.5354 84.4932 47.177 84.8348 46.8026C86.5066 44.9721 86.5582 42.5745 85.4557 40.4363L84.705 39.4117C84.5978 39.3061 84.5797 39.3087 84.4781 39.2345L83.6315 38.6251C82.1042 37.7084 79.9808 37.3907 77.5598 37.3907H70.3168V59.1182L70.3172 59.1186ZM35.6833 43.0149L35.7292 43.003C35.7292 43.4823 38.1893 50.0685 38.4151 51.0208H32.9624L35.6833 43.0149V43.0149ZM25.3932 59.1186H30.2765L31.7523 54.6325L39.6357 54.6284L41.1706 59.1219L46.0649 59.1186C45.9817 58.9481 45.8797 58.6849 45.8097 58.4884C45.7217 58.243 45.6419 58.0629 45.5452 57.7867C45.3744 57.2963 45.2096 56.9322 45.0384 56.4418L43.9976 53.699C43.8106 53.226 43.6785 52.8283 43.4862 52.3586C43.2962 51.8949 43.1551 51.4604 42.9726 51.0204L37.7641 37.3907H33.6138C33.4098 37.7703 33.2537 38.2588 33.0768 38.7059C32.8898 39.1793 32.7276 39.6197 32.5666 40.0474C32.2133 40.9875 31.9021 41.8553 31.5307 42.795L29.4882 48.2391C28.7985 49.9165 28.0817 52.0895 27.4281 53.6657C26.8445 55.0747 26.2504 56.9219 25.6378 58.3961C25.5433 58.6234 25.4553 58.8565 25.3936 59.1179L25.3932 59.1186ZM102.382 51.0208H96.9292C97.0771 50.3961 97.3788 49.6548 97.5911 49.0268C97.6953 48.7176 97.7999 48.4081 97.9045 48.0989C97.9538 47.9518 98.0038 47.8054 98.0535 47.6582C98.1318 47.4265 98.21 47.1945 98.2887 46.9624C98.3655 46.734 98.443 46.5061 98.5197 46.2781C98.5457 46.2006 98.5724 46.1235 98.5984 46.0464C98.6232 45.973 98.6477 45.8992 98.6725 45.8258C98.7252 45.6713 98.7771 45.5171 98.829 45.3621C98.8802 45.2116 98.931 45.0607 98.9822 44.9099C99.0578 44.686 99.1338 44.4617 99.2091 44.2374C99.2343 44.164 99.2591 44.0906 99.2836 44.0172C99.3069 43.9475 99.3306 43.8782 99.3543 43.8085C99.4002 43.6721 99.4409 43.5476 99.4785 43.4082C99.4984 43.3351 99.5703 43.0979 99.6775 43.1235C99.7464 43.1398 99.7727 43.3021 99.7923 43.3648C99.8115 43.4256 99.8326 43.4864 99.8529 43.5468C99.9311 43.7785 100.01 44.0105 100.088 44.2419C100.218 44.6281 100.349 45.0144 100.48 45.4007C100.584 45.7094 100.689 46.0186 100.794 46.3278C100.898 46.6366 101.002 46.9457 101.107 47.2545C101.369 48.027 101.629 48.7999 101.891 49.5725C101.995 49.8813 102.1 50.1904 102.205 50.4992C102.263 50.6734 102.322 50.8469 102.381 51.0208H102.382ZM89.3607 59.1186H94.1624L95.6976 54.6247L103.603 54.6287L105.102 59.1075L109.951 59.1186L109.462 57.7556C108.699 55.918 107.692 53.0151 106.891 50.9881L103.797 42.8121C103.63 42.335 103.447 41.9124 103.288 41.4687L101.731 37.391H97.4985L90.8583 54.982C90.669 55.4613 90.5554 55.8672 90.3624 56.3377C90.2118 56.7039 89.3908 58.7553 89.3603 59.119L89.3607 59.1186ZM58.1908 47.8139H53.7959V41.0795C55.2299 41.0795 58.2051 40.916 59.3197 41.3297C62.3672 42.4607 62.3277 47.8139 58.1905 47.8139H58.1908ZM49.1571 37.6316V59.1186H53.7959V51.5019C57.4458 51.5019 60.9979 51.8938 63.7395 49.7522C67.859 46.5339 67.1346 37.391 57.4582 37.391H49.4013C49.2136 37.391 49.1571 37.4466 49.1571 37.6316V37.6316ZM131.598 59.1186H146.41V55.511H136.156V49.7382H144.864V46.2103H136.156V41.0795H146.329V37.391H131.598V59.1186ZM159.025 47.8139H154.711V41.0795H158.781C159.851 41.0795 160.685 41.4079 161.283 41.9013C162.325 42.7632 162.362 43.9294 162.362 45.0878C162.362 46.7474 160.797 47.8139 159.025 47.8139ZM167 44.1155V44.2307C166.994 46.4171 166.802 47.3624 165.469 49.0305C164.962 49.6644 164.102 50.2008 163.366 50.567C160.891 51.7974 157.635 51.5019 154.711 51.5019V59.1186H150.154V37.391H158.292C160.996 37.391 162.821 37.9349 164.383 39.087C165.864 40.179 166.996 42.1515 167 44.1155H167ZM109.951 41.0795H116.624V59.119H121.181V41.0795H127.936V37.6316C127.936 37.4466 127.88 37.391 127.692 37.391H109.951V41.0795Z" fill="#41426D"/>
      <path fill-rule="evenodd" clip-rule="evenodd" d="M82.055 20.1629C82.055 21.2001 82.3489 22.0938 82.7022 22.7933C83.194 23.7656 83.6256 24.1964 84.3785 24.808C88.5812 28.224 96.6648 28.5309 101.632 28.5309C102.039 28.5309 101.994 28.459 102.36 28.4512L90.0641 10.0418C89.0199 10.2812 87.2819 11.3103 86.4439 12.0535C84.736 13.5686 84.0324 14.3511 82.9442 16.4963C82.5043 17.3634 82.055 18.8628 82.055 20.1629V20.1629ZM64.6626 28.4512C64.8854 28.4512 65.1755 28.4672 65.3903 28.4512C65.6955 28.4279 65.6556 28.3734 66.0349 28.3689C66.8695 28.3593 67.8177 28.2133 68.1375 28.2092C69.6524 28.1899 72.2582 27.8333 73.7257 27.8159C74.0655 27.8125 75.1239 27.6539 75.9066 27.6539L75.2112 25.7096C74.6731 23.8327 74.719 21.7665 75.4528 19.9545L76.0417 18.7816C76.2656 18.3657 76.4774 18.0818 76.7318 17.7074C77.2157 16.9949 77.7526 16.4711 78.3539 15.8791C78.9748 15.2675 79.5787 14.7744 80.2752 14.2655L81.2607 13.5619C81.4601 13.434 81.6245 13.3539 81.8131 13.2297L83.4834 12.2452C83.7087 12.134 83.8758 12.0528 84.0783 11.9542C85.0212 11.4934 88.7769 9.72186 89.7405 9.6429C89.6438 9.23402 88.2049 7.16443 87.8775 6.61691L86.3261 4.24038C86.1847 4.01982 86.1023 3.86561 85.9548 3.6495L83.5929 0C83.4013 0.139381 78.8544 7.04136 78.8521 7.04506C78.6357 7.36164 78.5018 7.60296 78.2858 7.92139L74.1279 14.1861C73.3249 15.3664 72.566 16.5356 71.7491 17.74C71.5331 18.0588 71.3995 18.2997 71.1828 18.6171L65.262 27.5275C65.0366 27.8618 64.8443 28.1124 64.6626 28.4509V28.4512Z" fill="#41426D"/>
    </g>
    <defs>
      <clipPath id="clip0_444_197">
        <rect width="167" height="60" fill="white"/>
      </clipPath>
    </defs>
  </symbol>
</svg>